# xmcd
# Copyright (C) 1995-1998 Ti Kan
#
# Track frame offsets:
#       150
#       17171
#       34429
#       59718
#       96049
#       113763
#       137451
#       155702
#       171197
#       191981
#       213257
#       231730
#       254905
#       306096
#       327133
#
# Disc length: 4617 seconds
#
# Revision: 0
# Processed by: cddbd v1.5.2PL0 Copyright (c) Steve Scherf et al.
# Submitted via: CD-Transfer v1.0
#
DISCID=e512070f
DTITLE=U.f.o. - M. Schenker, P. Way , P. Mogg
DYEAR=79
DGENRE=
TTITLE0=Natural Thing (Live)
TTITLE1=Out In The Street (Live)
TTITLE2=Only You Can Rock Me (Live)
TTITLE3=Doctor, Doctor (Live)
TTITLE4=Mother Mary (Live)
TTITLE5=This Kids (Live)
TTITLE6=Love To Love (Live)
TTITLE7=Lights Out (Live)
TTITLE8=Rock Bottom (Live)
TTITLE9=Too Hot, To Handle (Live)
TTITLE10=I'm A Loser (Live)
TTITLE11=Let It Roll (Live)
TTITLE12=Shoot, Shoot (Live)
TTITLE13=Hot 'n' Ready (Live)
TTITLE14=Cherry (Live)
EXTD=
EXTT0=
EXTT1=
EXTT2=
EXTT3=
EXTT4=
EXTT5=
EXTT6=
EXTT7=
EXTT8=
EXTT9=
EXTT10=
EXTT11=
EXTT12=
EXTT13=
EXTT14=
PLAYORDER=
